<svg class="icon icon-account" width="21" height="23" viewBox="0 0 21 23" fill="none" xmlns="http://www.w3.org/2000/svg">
<path d="M18.2717 15.2628L14.314 13.094L15.8061 10.7878C16.1539 10.2492 16.3364 9.64585 16.337 9.03261V5.38172C16.337 4.0207 15.6956 2.71543 14.5541 1.75305C13.4126 0.790662 11.8644 0.25 10.25 0.25C8.63564 0.25 7.0874 0.790662 5.94588 1.75305C4.80435 2.71543 4.16305 4.0207 4.16305 5.38172V9.03261C4.16359 9.64586 4.34609 10.2493 4.69392 10.7878L6.18604 13.094L2.22827 15.2628C1.62001 15.5948 1.12021 16.0501 0.774611 16.587C0.42901 17.1239 0.248641 17.7253 0.250008 18.3362V22.2431H20.25V18.3362C20.2513 17.7253 20.071 17.1239 19.7254 16.587C19.3798 16.0501 18.88 15.5948 18.2717 15.2628ZM18.5109 20.7769H1.98914V18.3362C1.98832 17.9697 2.09655 17.6088 2.30392 17.2867C2.51129 16.9645 2.81118 16.6913 3.17615 16.4922L8.48375 13.5836L6.22071 10.0858C6.01201 9.7626 5.90251 9.40057 5.90218 9.03261V5.38172C5.90218 4.40956 6.36025 3.47723 7.17562 2.78981C7.991 2.10239 9.09688 1.71621 10.25 1.71621C11.4031 1.71621 12.509 2.10239 13.3244 2.78981C14.1397 3.47723 14.5978 4.40956 14.5978 5.38172V9.03261C14.5975 9.40057 14.488 9.7626 14.2793 10.0858L12.0163 13.5836L17.324 16.4922C17.6889 16.6914 17.9888 16.9645 18.1961 17.2867C18.4035 17.6088 18.5117 17.9697 18.5109 18.3362V20.7769Z" fill="#131313" stroke="white" stroke-width="0.5"/>
</svg>

