<svg class="icon icon-search" width="20" height="20" viewBox="0 0 20 20" fill="none" xmlns="http://www.w3.org/2000/svg">
<path d="M14.8206 13.6595L18.3346 17.1727L17.1737 18.3337L13.6605 14.8197C12.3533 15.8676 10.7274 16.4375 9.05204 16.4351C4.97603 16.4351 1.66797 13.1271 1.66797 9.05106C1.66797 4.97505 4.97603 1.66699 9.05204 1.66699C13.128 1.66699 16.4361 4.97505 16.4361 9.05106C16.4385 10.7264 15.8685 12.3523 14.8206 13.6595ZM13.1748 13.0508C14.2161 11.98 14.7976 10.5446 14.7952 9.05106C14.7952 5.87755 12.2247 3.3079 9.05204 3.3079C5.87853 3.3079 3.30887 5.87755 3.30887 9.05106C3.30887 12.2237 5.87853 14.7942 9.05204 14.7942C10.5456 14.7966 11.981 14.2151 13.0517 13.1738L13.1748 13.0508Z" fill="#1E1C18" stroke="white" stroke-width="0.4"/>
</svg>
